Coordinates
version=1
nRows=37
nColumns=38
inDegrees=no

Units are S.I. units (second, meters, Newtons, ...)
If the header above contains a line with 'inDegrees', this indicates whether rotational values are in degrees (yes) or radians (no).

endheader
time	pelvis_tilt	pelvis_list	pelvis_rotation	pelvis_tx	pelvis_ty	pelvis_tz	hip_flexion_r	hip_adduction_r	hip_rotation_r	knee_angle_r	ankle_angle_r	subtalar_angle_r	mtp_angle_r	hip_flexion_l	hip_adduction_l	hip_rotation_l	knee_angle_l	ankle_angle_l	subtalar_angle_l	mtp_angle_l	lumbar_extension	lumbar_bending	lumbar_rotation	arm_flex_r	arm_add_r	arm_rot_r	elbow_flex_r	pro_sup_r	wrist_flex_r	wrist_dev_r	arm_flex_l	arm_add_l	arm_rot_l	elbow_flex_l	pro_sup_l	wrist_flex_l	wrist_dev_l
20.48	0.84047	1.50048	0.587724	0.783466	-0.58506	0.968775	-0.110163	0.0709023	-0.143707	0.23218	0.215298	0	0	0.184611	-0.0812169	-0.178017	0.175582	-0.00940312	0	0	-0.140673	0.122895	0.127655	0.815961	-0.12698	0.367351	0.979443	1.5708	0	0	0.921655	-0.115146	0.561545	0.775091	1.5708	0	0
20.49	0.840447	1.49807	0.586069	0.78309	-0.584496	0.968943	-0.105561	0.0711109	-0.145993	0.239258	0.215189	0	0	0.185023	-0.0827145	-0.178173	0.175164	-0.0091155	0	0	-0.140554	0.125636	0.129586	0.818006	-0.13134	0.373035	0.976248	1.5708	0	0	0.919947	-0.113033	0.558215	0.778458	1.5708	0	0
20.5	0.623132	1.50441	0.802353	0.782889	-0.583459	0.967392	-0.106381	0.0609757	-0.102921	0.224422	0.213035	0	0	0.191024	-0.0659633	-0.178888	0.173651	-0.00918128	0	0	-0.130123	0.108537	0.127913	0.81767	-0.133476	0.378278	0.971775	1.5708	0	0	0.918348	-0.115248	0.561612	0.784555	1.5708	0	0
20.51	0.635857	1.50275	0.787321	0.782625	-0.582853	0.967616	-0.103127	0.0614697	-0.101744	0.230232	0.211947	0	0	0.190298	-0.0674444	-0.179525	0.172868	-0.00914989	0	0	-0.130789	0.110648	0.129983	0.820875	-0.138047	0.384664	0.968242	1.5708	0	0	0.916139	-0.1133	0.557734	0.787951	1.5708	0	0
20.52	0.646821	1.50091	0.773269	0.782375	-0.582269	0.967818	-0.0993083	0.0618712	-0.100054	0.236662	0.21119	0	0	0.189718	-0.0692179	-0.181256	0.172326	-0.00868629	0	0	-0.131356	0.112845	0.132238	0.825403	-0.143095	0.394791	0.965215	1.5708	0	0	0.913098	-0.110978	0.550972	0.79182	1.5708	0	0
20.53	0.657986	1.4995	0.758916	0.782143	-0.581699	0.968034	-0.0959866	0.0620584	-0.098383	0.242767	0.210411	0	0	0.188788	-0.0707264	-0.182845	0.171829	-0.00826493	0	0	-0.132286	0.114458	0.134431	0.8291	-0.148138	0.402805	0.965444	1.5708	0	0	0.910305	-0.108621	0.544447	0.795466	1.5708	0	0
20.54	0.663803	1.49836	0.749875	0.78193	-0.581145	0.96824	-0.0926371	0.0618426	-0.0970801	0.248865	0.209721	0	0	0.187946	-0.0717448	-0.184039	0.171311	-0.00806941	0	0	-0.132967	0.115358	0.136164	0.8318	-0.152246	0.407647	0.967097	1.5708	0	0	0.907662	-0.106755	0.538617	0.798802	1.5708	0	0
20.55	0.661329	1.49731	0.748987	0.781721	-0.580587	0.968403	-0.0888534	0.0612056	-0.0959048	0.255177	0.209353	0	0	0.187512	-0.0723232	-0.185626	0.170959	-0.00780594	0	0	-0.133098	0.115691	0.137451	0.834239	-0.155067	0.411736	0.968446	1.5708	0	0	0.904361	-0.105389	0.531918	0.802783	1.5708	0	0
20.56	0.653415	1.49634	0.753892	0.78149	-0.579997	0.968517	-0.0853012	0.0603782	-0.0947951	0.260432	0.209071	0	0	0.187452	-0.0725883	-0.187562	0.170867	-0.00724187	0	0	-0.132729	0.11558	0.138281	0.836121	-0.156796	0.414625	0.969147	1.5708	0	0	0.900841	-0.104293	0.525801	0.806756	1.5708	0	0
20.57	0.824433	1.4864	0.578435	0.781165	-0.579828	0.970312	-0.0786463	0.0700475	-0.130697	0.280972	0.206708	0	0	0.182259	-0.0907873	-0.190522	0.171845	-0.0065921	0	0	-0.141648	0.134433	0.142948	0.840784	-0.159885	0.419454	0.968524	1.5708	0	0	0.895874	-0.0998875	0.513218	0.809273	1.5708	0	0
20.58	0.631155	1.49422	0.771607	0.780988	-0.578763	0.968613	-0.0792226	0.0589148	-0.0939452	0.268212	0.208418	0	0	0.188687	-0.0731316	-0.191261	0.172122	-0.00529675	0	0	-0.130257	0.115236	0.138154	0.838265	-0.157212	0.418391	0.967977	1.5708	0	0	0.892135	-0.103078	0.512728	0.815304	1.5708	0	0
20.59	0.802658	1.48482	0.596975	0.780608	-0.578546	0.970341	-0.0744213	0.0686731	-0.130555	0.285878	0.20591	0	0	0.183485	-0.0911753	-0.193258	0.173582	-0.00441622	0	0	-0.138817	0.134049	0.141849	0.840989	-0.15938	0.420704	0.968756	1.5708	0	0	0.887135	-0.0993572	0.502352	0.817504	1.5708	0	0
20.6	0.614925	1.49299	0.78559	0.780407	-0.577413	0.968582	-0.0766395	0.057378	-0.0949636	0.271667	0.208377	0	0	0.189234	-0.0731855	-0.193559	0.173688	-0.00256042	0	0	-0.127598	0.11452	0.136978	0.836223	-0.156605	0.416686	0.970848	1.5708	0	0	0.883749	-0.103008	0.504216	0.82341	1.5708	0	0
20.61	0.786552	1.48452	0.611571	0.779973	-0.577154	0.970267	-0.073262	0.0666067	-0.131412	0.287945	0.206174	0	0	0.183454	-0.0906047	-0.195603	0.174897	-0.00131747	0	0	-0.136316	0.132852	0.140759	0.837676	-0.159166	0.418296	0.972508	1.5708	0	0	0.879264	-0.0993372	0.494828	0.82499	1.5708	0	0
20.62	0.758999	1.48226	0.638553	0.779474	-0.576336	0.97015	-0.0695179	0.0656805	-0.133361	0.289993	0.206289	0	0	0.185851	-0.0906005	-0.196138	0.174737	-0.0003115	0	0	-0.133062	0.135387	0.136349	0.838715	-0.156182	0.424057	0.971282	1.5708	0	0	0.855881	-0.0564228	0.172093	0.924629	0.900194	0	0
20.63	0.786059	1.48566	0.611935	0.779226	-0.575688	0.970224	-0.0742115	0.0633864	-0.135267	0.290827	0.207716	0	0	0.18051	-0.0888965	-0.196763	0.173905	0.00105149	0	0	-0.135578	0.131574	0.13995	0.834395	-0.160718	0.419141	0.975836	1.5708	0	0	0.875342	-0.102127	0.499555	0.831224	1.5708	0	0
20.64	0.791542	1.48612	0.606107	0.778798	-0.574924	0.970274	-0.0751899	0.0620667	-0.135476	0.292298	0.207972	0	0	0.178084	-0.0880376	-0.196972	0.172236	0.00167669	0	0	-0.135613	0.13178	0.140202	0.832895	-0.161577	0.419434	0.977356	1.5708	0	0	0.87228	-0.0996055	0.48924	0.831755	1.5708	0	0
20.65	0.80301	1.48643	0.594585	0.778351	-0.574153	0.970341	-0.0766119	0.0611962	-0.135776	0.293202	0.208062	0	0	0.175196	-0.0873797	-0.196428	0.170236	0.00242038	0	0	-0.135962	0.132438	0.140514	0.831592	-0.162841	0.420328	0.978859	1.5708	0	0	0.870609	-0.0990207	0.486411	0.83295	1.5708	0	0
20.66	0.815022	1.48659	0.582632	0.777868	-0.573382	0.970413	-0.0778635	0.0604724	-0.136078	0.294091	0.207937	0	0	0.172089	-0.0866164	-0.195403	0.167508	0.00273798	0	0	-0.136202	0.133349	0.140948	0.830183	-0.164441	0.421388	0.980383	1.5708	0	0	0.869485	-0.098808	0.485977	0.8339	1.5708	0	0
20.67	0.822696	1.48678	0.574424	0.777433	-0.572598	0.970508	-0.0786252	0.0593624	-0.135915	0.295369	0.207886	0	0	0.169083	-0.0856802	-0.195143	0.164938	0.00272691	0	0	-0.136037	0.133989	0.142027	0.828422	-0.16603	0.422134	0.98152	1.5708	0	0	0.868433	-0.0987576	0.486925	0.834739	1.5708	0	0
20.68	0.825015	1.48673	0.571501	0.776996	-0.571809	0.970583	-0.0785998	0.0580862	-0.135842	0.297102	0.207796	0	0	0.166689	-0.0846593	-0.19489	0.162291	0.00249065	0	0	-0.135086	0.134621	0.143171	0.826245	-0.167648	0.422612	0.982354	1.5708	0	0	0.867326	-0.0987632	0.489007	0.83564	1.5708	0	0
20.69	0.823934	1.48647	0.572096	0.776523	-0.571032	0.970677	-0.0783002	0.0568529	-0.135498	0.298469	0.207294	0	0	0.164792	-0.0837015	-0.194608	0.159763	0.00223663	0	0	-0.133629	0.135332	0.144241	0.823662	-0.169389	0.422539	0.983163	1.5708	0	0	0.866115	-0.0985562	0.491508	0.836729	1.5708	0	0
20.7	0.820631	1.48608	0.574913	0.775999	-0.570249	0.970807	-0.0775937	0.0555681	-0.135111	0.300157	0.206617	0	0	0.163157	-0.0827541	-0.194266	0.157246	0.00177543	0	0	-0.131854	0.136136	0.145211	0.820748	-0.171142	0.421619	0.984248	1.5708	0	0	0.864743	-0.0981283	0.494195	0.837995	1.5708	0	0
20.71	0.814487	1.48563	0.580267	0.77547	-0.569463	0.970943	-0.0760304	0.0541864	-0.13464	0.3031	0.206035	0	0	0.161741	-0.0818177	-0.194347	0.154842	0.00129902	0	0	-0.129733	0.13687	0.145964	0.817773	-0.172646	0.420547	0.985563	1.5708	0	0	0.863074	-0.0979164	0.496962	0.839505	1.5708	0	0
20.72	0.80956	1.48494	0.584205	0.774945	-0.568647	0.971105	-0.074299	0.0530571	-0.134329	0.306275	0.205159	0	0	0.160364	-0.0813049	-0.194877	0.152536	0.000960261	0	0	-0.127426	0.1379	0.146243	0.81506	-0.173921	0.419946	0.986257	1.5708	0	0	0.860887	-0.0978669	0.499187	0.841066	1.5708	0	0
20.73	0.807827	1.48412	0.584792	0.774409	-0.567799	0.971315	-0.0728184	0.052168	-0.134098	0.309205	0.203853	0	0	0.158882	-0.0811722	-0.195715	0.150603	0.000980969	0	0	-0.125198	0.139219	0.146138	0.812873	-0.175229	0.420037	0.985598	1.5708	0	0	0.858145	-0.0976667	0.500379	0.842551	1.5708	0	0
20.74	0.809663	1.48298	0.581465	0.773852	-0.566944	0.971548	-0.0714241	0.0517254	-0.1335	0.312003	0.202188	0	0	0.15713	-0.0814399	-0.196645	0.14836	0.00101366	0	0	-0.123068	0.141087	0.146127	0.811734	-0.176717	0.421354	0.982643	1.5708	0	0	0.854802	-0.0970727	0.500169	0.8442	1.5708	0	0
20.75	0.822626	1.48189	0.566612	0.773264	-0.566114	0.971843	-0.071057	0.0518551	-0.132148	0.314373	0.200082	0	0	0.154107	-0.0821085	-0.197554	0.145445	0.000810327	0	0	-0.122186	0.143484	0.146354	0.811766	-0.178425	0.423584	0.978657	1.5708	0	0	0.851436	-0.095888	0.498307	0.845807	1.5708	0	0
20.76	0.841399	1.48085	0.545673	0.772635	-0.565297	0.972152	-0.0712431	0.0521567	-0.13078	0.31662	0.197825	0	0	0.150328	-0.0829642	-0.198591	0.142247	0.000692697	0	0	-0.122095	0.146031	0.14655	0.812539	-0.180219	0.426218	0.974697	1.5708	0	0	0.848112	-0.0944604	0.495295	0.847873	1.5708	0	0
20.77	0.703541	1.49018	0.68235	0.77223	-0.564052	0.970791	-0.0752692	0.0422091	-0.0923395	0.303538	0.19892	0	0	0.150847	-0.0658017	-0.199446	0.137552	0.000493919	0	0	-0.113164	0.128696	0.143371	0.809914	-0.178963	0.424483	0.97165	1.5708	0	0	0.846523	-0.0976142	0.500685	0.852404	1.5708	0	0
20.78	0.880062	1.47997	0.501376	0.771345	-0.563628	0.972771	-0.0724995	0.0516661	-0.124941	0.321143	0.194037	0	0	0.140732	-0.0832296	-0.20232	0.134183	9.00964e-05	0	0	-0.123254	0.149282	0.147603	0.81374	-0.183583	0.428748	0.969883	1.5708	0	0	0.842861	-0.0921212	0.491046	0.853	1.5708	0	0
20.79	0.905722	1.47982	0.473273	0.770493	-0.562769	0.973045	-0.0727796	0.0507112	-0.125196	0.325791	0.193232	0	0	0.135108	-0.0829344	-0.203502	0.129875	0.000175973	0	0	-0.124524	0.150975	0.147706	0.814534	-0.186613	0.43178	0.969416	1.5708	0	0	0.840649	-0.090084	0.486678	0.855082	1.5708	0	0
20.8	0.926642	1.48003	0.449709	0.76961	-0.561942	0.973274	-0.0729195	0.0492807	-0.124045	0.330136	0.19252	0	0	0.129792	-0.0819914	-0.204424	0.12572	0.000126324	0	0	-0.125504	0.151896	0.147953	0.814858	-0.189858	0.434447	0.969655	1.5708	0	0	0.838839	-0.0886214	0.484255	0.857211	1.5708	0	0
20.81	0.793889	1.49118	0.580865	0.769036	-0.560741	0.971713	-0.07385	0.0373712	-0.0900999	0.323172	0.197122	0	0	0.130799	-0.0637423	-0.204743	0.121774	0.00128105	0	0	-0.116326	0.133349	0.144647	0.811791	-0.189849	0.433905	0.969411	1.5708	0	0	0.838022	-0.0926873	0.491219	0.862049	1.5708	0	0
20.82	0.837752	1.48003	0.541863	0.766669	-0.561763	0.97322	-0.0567593	0.0409919	-0.127503	0.345749	0.193209	0	0	0.133159	-0.0777497	-0.227453	0.109821	-0.00834557	0	0	-0.118218	0.149028	0.138702	0.81723	-0.193943	0.437024	0.967258	1.5708	0	0	0.836309	-0.0879228	0.482319	0.861879	1.5708	0	0
20.83	0.815745	1.48732	0.553299	0.767171	-0.559118	0.971305	-0.0666397	0.0379216	-0.0859554	0.337862	0.197674	0	0	0.120954	-0.0667747	-0.185111	0.10215	-0.00451412	0	0	-0.113097	0.13913	0.14524	0.813622	-0.195647	0.441172	0.966678	1.5708	0	0	0.831709	-0.0918469	0.48849	0.867735	1.5708	0	0
20.84	0.823272	1.48766	0.542895	0.76609	-0.558289	0.971258	-0.0632832	0.0357572	-0.0843204	0.346667	0.198042	0	0	0.118398	-0.0656037	-0.185099	0.101627	-0.00142871	0	0	-0.112804	0.139818	0.145628	0.814525	-0.197891	0.443274	0.965175	1.5708	0	0	0.828441	-0.0913457	0.486925	0.870592	1.5708	0	0
